<svg width="128" height="144" viewBox="0 0 128 144" fill="none" xmlns="http://www.w3.org/2000/svg">
<rect width="128" height="144" rx="4" fill="url(#paint0_linear)"/>
<rect width="128" height="144" rx="4" fill="url(#paint1_linear)"/>
<g clip-path="url(#clip0)">
<path d="M103.959 58.7367C103.967 58.7009 103.98 58.6666 103.986 58.6309C104.009 58.4709 104.004 58.3095 103.973 58.148C103.966 58.1094 103.949 58.0751 103.937 58.038C103.914 57.9594 103.899 57.8808 103.863 57.8065C103.839 57.7565 103.802 57.7179 103.773 57.6722C103.757 57.6479 103.756 57.6208 103.739 57.5965L93.0229 42.5943C92.8714 42.3829 92.6671 42.2472 92.4456 42.1471C92.3042 41.82 92.0513 41.5456 91.7127 41.3999L78.4965 35.6848C78.3165 35.6076 78.125 35.5676 77.9293 35.5676H50.0682C49.8724 35.5676 49.681 35.6076 49.5009 35.6848L36.2848 41.3999C35.9476 41.5456 35.6947 41.8199 35.5532 42.1457C35.3332 42.2457 35.1274 42.3829 34.976 42.5943L24.2602 57.5965C24.243 57.6194 24.2416 57.6479 24.2259 57.6722C24.1973 57.7179 24.1602 57.7565 24.1373 57.8065C24.1016 57.8808 24.0859 57.9608 24.063 58.038C24.053 58.0751 24.0359 58.1109 24.0287 58.148C23.9959 58.308 23.993 58.4709 24.0159 58.6309C24.0216 58.6681 24.0344 58.7009 24.043 58.7367C24.0716 58.8624 24.1159 58.9824 24.1773 59.0981C24.2002 59.141 24.223 59.181 24.2502 59.2224C24.2702 59.2524 24.2816 59.2867 24.3045 59.3167L62.8814 107.895C62.8928 107.909 62.9114 107.915 62.9228 107.928C63.0457 108.071 63.1886 108.188 63.3543 108.272C63.3801 108.285 63.4072 108.294 63.4343 108.305C63.6115 108.382 63.8015 108.435 64.0016 108.435C64.2016 108.435 64.3916 108.382 64.5688 108.305C64.5959 108.294 64.6231 108.285 64.6488 108.272C64.8131 108.188 64.9574 108.071 65.0803 107.928C65.0917 107.915 65.1103 107.909 65.1217 107.895L103.699 59.3167C103.722 59.2882 103.733 59.2524 103.754 59.2224C103.782 59.1824 103.804 59.141 103.827 59.0981C103.886 58.9824 103.93 58.8624 103.959 58.7367ZM50.3653 38.4237H77.6349L87.8778 42.853L77.5692 48.4252H50.4311L40.1224 42.853L50.3653 38.4237ZM46.4848 74.1431H81.5155L64.0001 104.17L46.4848 74.1431ZM46.5419 71.2856L51.5426 51.2827H76.5005L82.307 71.2856H46.5419ZM28.0021 57.275L37.1363 44.4875L48.7294 50.7541L43.8716 70.1869L28.0793 57.3193C28.0564 57.2993 28.0264 57.2922 28.0021 57.275ZM42.5828 72.823C42.5985 73.0344 42.6528 73.2444 42.7643 73.4345L52.7185 90.5012L31.5255 63.8131L42.5828 72.823ZM75.2817 90.5012L85.2375 73.4345C85.3489 73.2444 85.4018 73.0344 85.4189 72.823L96.4776 63.8131L75.2817 90.5012ZM84.8045 69.6354L79.3152 50.7298L90.864 44.4875L99.9981 57.275C99.9738 57.2922 99.9438 57.2993 99.9196 57.3193L84.8045 69.6354Z" fill="white"/>
</g>
<defs>
<linearGradient id="paint0_linear" x1="5" y1="5" x2="128" y2="152" gradientUnits="userSpaceOnUse">
<stop stop-color="#D6FF94"/>
<stop offset="1" stop-color="#3DC24B"/>
</linearGradient>
<linearGradient id="paint1_linear" x1="3.2" y1="-6.11024e-07" x2="145.239" y2="117.316" gradientUnits="userSpaceOnUse">
<stop stop-color="#63F7A1"/>
<stop offset="1" stop-color="#27AE60"/>
</linearGradient>
<clipPath id="clip0">
<rect width="80" height="80" fill="white" transform="translate(24 32)"/>
</clipPath>
</defs>
</svg>
