<svg width="128" height="144" viewBox="0 0 128 144" fill="none" xmlns="http://www.w3.org/2000/svg">
<rect width="128" height="144" rx="4" fill="url(#paint0_linear)"/>
<path d="M63.9336 78.6401C67.6302 78.6401 70.6269 75.6434 70.6269 71.9468C70.6269 68.2501 67.6302 65.2534 63.9336 65.2534C60.2369 65.2534 57.2402 68.2501 57.2402 71.9468C57.2402 75.6434 60.2369 78.6401 63.9336 78.6401Z" fill="white"/>
<path d="M63.9335 87.2799C54.5335 87.2799 46.3201 86.1733 40.1735 84.0666C36.1868 82.7066 32.8001 80.8933 30.3868 78.8266C27.8268 76.6399 26.4668 74.2533 26.4668 71.9466C26.4668 67.5199 31.3201 63.1866 39.4668 60.3599C46.1335 58.0399 54.8268 56.7466 63.9201 56.7466C72.8535 56.7466 81.4268 57.9999 88.0535 60.2932C91.9335 61.6266 95.2001 63.3599 97.5201 65.2799C100.04 67.3866 101.373 69.6932 101.373 71.9466C101.373 76.5466 95.9468 81.1999 87.2001 84.0933C81.0135 86.1466 72.7468 87.2799 63.9335 87.2799ZM63.9335 59.9466C55.3068 59.9466 46.7735 61.1999 40.5335 63.3732C33.0401 65.9866 29.6801 69.5599 29.6801 71.9466C29.6801 74.4266 33.2935 78.3332 41.2135 81.0399C47.0268 83.0266 54.8935 84.0799 63.9335 84.0799C72.4135 84.0799 80.3201 83.0132 86.2001 81.0532C94.4268 78.3199 98.1868 74.4132 98.1868 71.9466C98.1868 70.6799 97.2268 69.1866 95.4801 67.7332C93.4668 66.0532 90.5335 64.5199 87.0268 63.3066C80.7201 61.1466 72.5201 59.9466 63.9335 59.9466Z" fill="white"/>
<path d="M48.7467 105.307C47.3867 105.307 46.1867 105.013 45.1734 104.427C41.3467 102.213 40.0134 95.8401 41.6267 87.3734C42.9467 80.4268 46.1734 72.2668 50.72 64.3868C55.1867 56.6534 60.5467 49.8534 65.84 45.2534C68.9333 42.5601 72.0667 40.5867 74.8933 39.5467C77.9734 38.4134 80.64 38.4134 82.5867 39.5334C86.5733 41.8267 87.8933 48.8667 86.0267 57.8801C84.7067 64.2801 81.56 72.0001 77.16 79.6401C72.4667 87.7734 67.4 94.3334 62.5067 98.6134C59.3333 101.387 56.0667 103.413 53.08 104.467C51.52 105.027 50.0534 105.307 48.7467 105.307ZM52.0934 65.1868L53.48 65.9868C49.1734 73.4534 45.9867 81.4668 44.76 87.9734C43.28 95.7734 44.7067 100.467 46.76 101.653C47.2667 101.947 47.9334 102.107 48.7467 102.107C51.4 102.107 55.5734 100.427 60.4 96.2134C65.0267 92.1734 69.8667 85.8801 74.3867 78.0534C78.6267 70.7068 81.64 63.3201 82.8933 57.2534C84.64 48.7601 83.1333 43.5601 80.9867 42.3201C79.8933 41.6934 78.12 41.7734 75.9867 42.5601C73.52 43.4667 70.7333 45.2401 67.9333 47.6801C62.9067 52.0534 57.7733 58.5601 53.48 66.0001L52.0934 65.1868Z" fill="white"/>
<path d="M79.12 105.347C75.4933 105.347 70.8933 103.16 66.0933 99.0267C60.7333 94.4134 55.28 87.5467 50.72 79.6667C46.24 71.9334 43.04 63.8934 41.6933 57C40.9067 52.9734 40.76 49.28 41.2667 46.3067C41.8267 43.0667 43.1467 40.76 45.1067 39.6267C49.08 37.32 55.84 39.6934 62.72 45.8134C67.6 50.1467 72.72 56.7334 77.1333 64.3601C81.84 72.4934 85 80.1601 86.2533 86.5334C87.0667 90.6667 87.2 94.5067 86.6267 97.6267C86.0133 100.947 84.6267 103.307 82.6267 104.467C81.6267 105.053 80.44 105.347 79.12 105.347ZM53.4933 78.0667C57.8133 85.5334 63.1733 92.2934 68.1867 96.6001C74.2 101.773 78.9733 102.893 81.04 101.693C83.1867 100.453 84.76 95.3734 83.1333 87.1601C81.9333 81.1334 78.9067 73.8001 74.3733 65.9734C70.12 58.6267 65.2267 52.32 60.6 48.2134C54.12 42.4534 48.8667 41.16 46.72 42.4C45.6267 43.0267 44.8133 44.6134 44.4267 46.8534C43.9867 49.44 44.12 52.7467 44.84 56.3867C46.12 62.9334 49.1867 70.6267 53.4933 78.0667Z" fill="white"/>
<defs>
<linearGradient id="paint0_linear" x1="128" y1="144" x2="4.76837e-07" y2="-4.23855e-07" gradientUnits="userSpaceOnUse">
<stop stop-color="#4481EB"/>
<stop offset="1" stop-color="#04BEFE"/>
</linearGradient>
</defs>
</svg>
